# xmcd
#
# Track frame offsets: 
#        150
#        10163
#        21757
#
# Disc length: 457 seconds
#
# Revision: 0
# Processed by: cddbd v1.5.2PL0 Copyright (c) Steve Scherf et al.
# Submitted via: ExactAudioCopy v0.99pb4
#
DISCID=1601c703
DTITLE=Carolyn Sills and The Poor Man's Roses - Playing The Music Of Pat
DTITLE=sy Cline
DYEAR=2006
DGENRE=Country
TTITLE0=Gotta Lotta Rhythm In My Soul
TTITLE1=San Antonio Rose
TTITLE2=If You've Got Leaving On Your Mind
EXTD=
EXTT0=
EXTT1=
EXTT2=
PLAYORDER=
